<svg xmlns="http://www.w3.org/2000/svg" version="1.1" xmlns:xlink="http://www.w3.org/1999/xlink" xmlns:svgjs="http://svgjs.com/svgjs" width="100mm" height="100mm"><svg width="100mm" height="100mm" viewBox="0 0 100 100" version="1.1" id="SvgjsSvg1009" inkscape:version="1.1.1 (3bf5ae0d25, 2021-09-20)" sodipodi:docname="logo.svg" xmlns:inkscape="http://www.inkscape.org/namespaces/inkscape" xmlns:sodipodi="http://sodipodi.sourceforge.net/DTD/sodipodi-0.dtd" xmlns="http://www.w3.org/2000/svg" xmlns:svg="http://www.w3.org/2000/svg">
  <sodipodi:namedview id="SvgjsSodipodi:namedview1008" pagecolor="#ffffff" bordercolor="#666666" borderopacity="1.0" inkscape:pageshadow="2" inkscape:pageopacity="0.0" inkscape:pagecheckerboard="0" inkscape:document-units="mm" showgrid="false" width="100mm" inkscape:zoom="1.0482005" inkscape:cx="161.70571" inkscape:cy="122.59105" inkscape:window-width="1920" inkscape:window-height="1017" inkscape:window-x="1912" inkscape:window-y="-8" inkscape:window-maximized="1" inkscape:current-layer="layer1"></sodipodi:namedview>
  <defs id="SvgjsDefs1007">
    <inkscape:path-effect effect="fillet_chamfer" id="SvgjsInkscape:path-effect1006" is_visible="true" lpeversion="1" satellites_param="F,0,0,1,0,7.9375,0,1 @ F,0,0,1,0,7.9375,0,1 @ F,0,0,1,0,7.9375,0,1" unit="px" method="auto" mode="F" radius="30" chamfer_steps="1" flexible="false" use_knot_distance="true" apply_no_radius="true" apply_with_radius="true" only_selected="false" hide_knots="false"></inkscape:path-effect>
    <inkscape:path-effect effect="fillet_chamfer" id="SvgjsInkscape:path-effect1005" is_visible="true" lpeversion="1" satellites_param="F,0,0,1,0,7.9375,0,1 @ F,0,0,1,0,7.9375,0,1 @ F,0,0,1,0,7.9375,0,1 @ F,0,0,1,0,7.9375,0,1 | F,0,0,1,0,7.9375,0,1 @ F,0,0,1,0,7.9375,0,1 @ F,0,0,1,0,7.9375,0,1 @ F,0,0,1,0,7.9375,0,1" unit="px" method="auto" mode="F" radius="30" chamfer_steps="1" flexible="false" use_knot_distance="true" apply_no_radius="true" apply_with_radius="true" only_selected="false" hide_knots="false"></inkscape:path-effect>
    <inkscape:path-effect effect="fillet_chamfer" id="SvgjsInkscape:path-effect1004" is_visible="true" lpeversion="1" satellites_param="F,0,0,1,0,7.9375,0,1 @ F,0,0,1,0,7.9375,0,1 @ F,0,0,1,0,7.9375,0,1 @ F,0,0,1,0,7.9375,0,1" unit="px" method="auto" mode="F" radius="30" chamfer_steps="1" flexible="false" use_knot_distance="true" apply_no_radius="true" apply_with_radius="true" only_selected="false" hide_knots="false"></inkscape:path-effect>
  </defs>
  <g inkscape:label="Calque 1" inkscape:groupmode="layer" id="SvgjsG1003">
    <path id="SvgjsPath1002" style="fill:#b6dd70;fill-opacity:1;stroke:none;stroke-width:0.999999px;stroke-linecap:butt;stroke-linejoin:miter;stroke-opacity:1" d="m 154.72952,271.66589 30.69721,61.39283 a 3.9688529,3.9688529 3.0318208e-6 0 0 7.09966,0 l 30.69722,-61.39283 a 4.9055876,4.9055876 58.282824 0 0 -4.38767,-7.09948 h -59.71875 a 4.9055882,4.9055882 121.71718 0 0 -4.38767,7.09948 z" transform="scale(0.26458333)" inkscape:path-effect="#path-effect4374" inkscape:original-d="M 151.17969 264.56641 L 188.97656 340.1582 L 226.77344 264.56641 L 151.17969 264.56641 z "></path>
    <path id="SvgjsPath1001" style="fill:#4b9f70;fill-opacity:1.0;stroke:none;stroke-width:0.999999px;stroke-linecap:butt;stroke-linejoin:miter;stroke-opacity:1" d="m 98.038039,158.28116 30.695401,61.3908 a 12.843145,12.843145 31.717475 0 0 11.48726,7.09952 h 21.91992 a 7.9375,7.9375 135 0 0 7.9375,-7.9375 v -59.71484 a 7.9375,7.9375 45 0 0 -7.9375,-7.9375 h -59.71484 a 4.9056448,4.9056448 121.71747 0 0 -4.387741,7.09952 z m 109.835011,0.83798 0,59.71484 a 7.9375,7.9375 45 0 0 7.9375,7.9375 h 21.92187 a 12.843145,12.843145 148.28253 0 0 11.48726,-7.09952 l 30.6954,-61.3908 a 4.9056448,4.9056448 58.282526 0 0 -4.38774,-7.09952 h -59.71679 a 7.9375,7.9375 135 0 0 -7.9375,7.9375 z" transform="scale(0.26458333)" inkscape:path-effect="#path-effect4372" inkscape:original-d="M 94.488281 151.18164 L 132.2832 226.77148 L 170.07812 226.77148 L 170.07812 151.18164 L 94.488281 151.18164 z M 207.87305 151.18164 L 207.87305 226.77148 L 245.66992 226.77148 L 283.46484 151.18164 L 207.87305 151.18164 z "></path>
    <path id="SvgjsPath1000" style="fill:#115e59;fill-opacity:1;stroke:none;stroke-width:1.00157;stroke-linecap:butt;stroke-linejoin:miter;stroke-miterlimit:4;stroke-dasharray:none;stroke-opacity:1" d="m 41.344607,44.894475 30.695552,61.392695 a 12.842996,12.842996 31.717771 0 0 11.487185,7.09955 H 294.42578 a 12.842996,12.842996 148.28223 0 0 11.48718,-7.09955 L 336.60852,44.894475 A 4.9057016,4.9057016 58.282229 0 0 332.2207,37.794922 H 45.732422 a 4.9057015,4.9057015 121.71777 0 0 -4.387815,7.099553 z" transform="scale(0.26458333)" sodipodi:nodetypes="ccccc" inkscape:path-effect="#path-effect3952" inkscape:original-d="M 37.794922,37.794922 75.589844,113.38672 H 302.36328 L 340.1582,37.794922 Z"></path>
  </g>
</svg><style>@media (prefers-color-scheme: light) { :root { filter: contrast(1) brightness(0.8); } }
@media (prefers-color-scheme: dark) { :root { filter: contrast(1) brightness(1); } }
</style></svg>